# xmcd
#
# Track frame offsets: 
#        150
#        5942
#        32408
#        52394
#        77688
#        101406
#        127944
#        150903
#        173074
#        188897
#
# Disc length: 2878 seconds
#
# Revision: 3
# Processed by: cddbd v1.5.2PL0 Copyright (c) Steve Scherf et al.
# Submitted via: ExactAudioCopy v0.95b4
#
DISCID=740b3c0a
DTITLE=Pyramaze - Legend Of The Bone Carver
DYEAR=2006
DGENRE=Progressive Metal
TTITLE0=Era Of Chaos
TTITLE1=The Birth
TTITLE2=What Lies Beyond
TTITLE3=Ancient Words Within
TTITLE4=Souls In Pain
TTITLE5=She Who Summoned Me
TTITLE6=The Bone Carver
TTITLE7=Bring Back Life
TTITLE8=Blood Red Skies
TTITLE9=Tears Of Hate
EXTD=YEAR: 2006
EXTT0=
EXTT1=
EXTT2=
EXTT3=
EXTT4=
EXTT5=
EXTT6=
EXTT7=
EXTT8=
EXTT9=
PLAYORDER=
